<svg width="35" height="44" viewBox="0 0 35 44" fill="none" xmlns="http://www.w3.org/2000/svg">
<path d="M29.8371 34.2317C27.0056 33.3736 26.4908 31.7434 26.4908 30.7996V29.0835C28.195 27.4582 29.3878 25.3708 29.9229 23.0773C32.068 23.0773 33.355 20.5033 33.355 17.9292C33.355 17.2428 33.355 14.4971 31.6389 14.4971C35.9291 2.05569 23.4019 -2.66345 14.4784 3.34273C10.7031 3.34273 9.67347 9.0057 11.0463 14.4971C9.33026 14.4971 9.33026 17.2428 9.33026 17.9292C9.33026 20.5033 10.6173 23.0773 12.7624 23.0773C13.3021 25.3689 14.4942 27.4551 16.1945 29.0835V30.7996C16.1945 32.1724 15.7655 33.8885 8.81544 35.2613C1.86543 36.6341 0.75 42.8119 0.75 42.8119H28.4642" stroke="#142683" stroke-width="1.5" stroke-linecap="round" stroke-linejoin="round"/>
</svg>
